%TF.GenerationSoftware,KiCad,Pcbnew,9.0.4*%
%TF.CreationDate,2025-11-18T21:20:37+01:00*%
%TF.ProjectId,Z_hler,5ae4686c-6572-42e6-9b69-6361645f7063,rev?*%
%TF.SameCoordinates,Original*%
%TF.FileFunction,Legend,Top*%
%TF.FilePolarity,Positive*%
%FSLAX46Y46*%
G04 Gerber Fmt 4.6, Leading zero omitted, Abs format (unit mm)*
G04 Created by KiCad (PCBNEW 9.0.4) date 2025-11-18 21:20:37*
%MOMM*%
%LPD*%
G01*
G04 APERTURE LIST*
%ADD10C,0.150000*%
%ADD11C,0.120000*%
%ADD12C,0.203200*%
G04 APERTURE END LIST*
D10*
X101086779Y-101509819D02*
X101086779Y-102319342D01*
X101086779Y-102319342D02*
X101134398Y-102414580D01*
X101134398Y-102414580D02*
X101182017Y-102462200D01*
X101182017Y-102462200D02*
X101277255Y-102509819D01*
X101277255Y-102509819D02*
X101467731Y-102509819D01*
X101467731Y-102509819D02*
X101562969Y-102462200D01*
X101562969Y-102462200D02*
X101610588Y-102414580D01*
X101610588Y-102414580D02*
X101658207Y-102319342D01*
X101658207Y-102319342D02*
X101658207Y-101509819D01*
X102134398Y-101843152D02*
X102134398Y-102843152D01*
X102134398Y-101890771D02*
X102229636Y-101843152D01*
X102229636Y-101843152D02*
X102420112Y-101843152D01*
X102420112Y-101843152D02*
X102515350Y-101890771D01*
X102515350Y-101890771D02*
X102562969Y-101938390D01*
X102562969Y-101938390D02*
X102610588Y-102033628D01*
X102610588Y-102033628D02*
X102610588Y-102319342D01*
X102610588Y-102319342D02*
X102562969Y-102414580D01*
X102562969Y-102414580D02*
X102515350Y-102462200D01*
X102515350Y-102462200D02*
X102420112Y-102509819D01*
X102420112Y-102509819D02*
X102229636Y-102509819D01*
X102229636Y-102509819D02*
X102134398Y-102462200D01*
X75549410Y-55807438D02*
X75454172Y-55759819D01*
X75454172Y-55759819D02*
X75311315Y-55759819D01*
X75311315Y-55759819D02*
X75168458Y-55807438D01*
X75168458Y-55807438D02*
X75073220Y-55902676D01*
X75073220Y-55902676D02*
X75025601Y-55997914D01*
X75025601Y-55997914D02*
X74977982Y-56188390D01*
X74977982Y-56188390D02*
X74977982Y-56331247D01*
X74977982Y-56331247D02*
X75025601Y-56521723D01*
X75025601Y-56521723D02*
X75073220Y-56616961D01*
X75073220Y-56616961D02*
X75168458Y-56712200D01*
X75168458Y-56712200D02*
X75311315Y-56759819D01*
X75311315Y-56759819D02*
X75406553Y-56759819D01*
X75406553Y-56759819D02*
X75549410Y-56712200D01*
X75549410Y-56712200D02*
X75597029Y-56664580D01*
X75597029Y-56664580D02*
X75597029Y-56331247D01*
X75597029Y-56331247D02*
X75406553Y-56331247D01*
X76358934Y-56236009D02*
X76501791Y-56283628D01*
X76501791Y-56283628D02*
X76549410Y-56331247D01*
X76549410Y-56331247D02*
X76597029Y-56426485D01*
X76597029Y-56426485D02*
X76597029Y-56569342D01*
X76597029Y-56569342D02*
X76549410Y-56664580D01*
X76549410Y-56664580D02*
X76501791Y-56712200D01*
X76501791Y-56712200D02*
X76406553Y-56759819D01*
X76406553Y-56759819D02*
X76025601Y-56759819D01*
X76025601Y-56759819D02*
X76025601Y-55759819D01*
X76025601Y-55759819D02*
X76358934Y-55759819D01*
X76358934Y-55759819D02*
X76454172Y-55807438D01*
X76454172Y-55807438D02*
X76501791Y-55855057D01*
X76501791Y-55855057D02*
X76549410Y-55950295D01*
X76549410Y-55950295D02*
X76549410Y-56045533D01*
X76549410Y-56045533D02*
X76501791Y-56140771D01*
X76501791Y-56140771D02*
X76454172Y-56188390D01*
X76454172Y-56188390D02*
X76358934Y-56236009D01*
X76358934Y-56236009D02*
X76025601Y-56236009D01*
X77977982Y-55759819D02*
X78073220Y-55759819D01*
X78073220Y-55759819D02*
X78168458Y-55807438D01*
X78168458Y-55807438D02*
X78216077Y-55855057D01*
X78216077Y-55855057D02*
X78263696Y-55950295D01*
X78263696Y-55950295D02*
X78311315Y-56140771D01*
X78311315Y-56140771D02*
X78311315Y-56378866D01*
X78311315Y-56378866D02*
X78263696Y-56569342D01*
X78263696Y-56569342D02*
X78216077Y-56664580D01*
X78216077Y-56664580D02*
X78168458Y-56712200D01*
X78168458Y-56712200D02*
X78073220Y-56759819D01*
X78073220Y-56759819D02*
X77977982Y-56759819D01*
X77977982Y-56759819D02*
X77882744Y-56712200D01*
X77882744Y-56712200D02*
X77835125Y-56664580D01*
X77835125Y-56664580D02*
X77787506Y-56569342D01*
X77787506Y-56569342D02*
X77739887Y-56378866D01*
X77739887Y-56378866D02*
X77739887Y-56140771D01*
X77739887Y-56140771D02*
X77787506Y-55950295D01*
X77787506Y-55950295D02*
X77835125Y-55855057D01*
X77835125Y-55855057D02*
X77882744Y-55807438D01*
X77882744Y-55807438D02*
X77977982Y-55759819D01*
X78787506Y-56759819D02*
X78977982Y-56759819D01*
X78977982Y-56759819D02*
X79073220Y-56712200D01*
X79073220Y-56712200D02*
X79120839Y-56664580D01*
X79120839Y-56664580D02*
X79216077Y-56521723D01*
X79216077Y-56521723D02*
X79263696Y-56331247D01*
X79263696Y-56331247D02*
X79263696Y-55950295D01*
X79263696Y-55950295D02*
X79216077Y-55855057D01*
X79216077Y-55855057D02*
X79168458Y-55807438D01*
X79168458Y-55807438D02*
X79073220Y-55759819D01*
X79073220Y-55759819D02*
X78882744Y-55759819D01*
X78882744Y-55759819D02*
X78787506Y-55807438D01*
X78787506Y-55807438D02*
X78739887Y-55855057D01*
X78739887Y-55855057D02*
X78692268Y-55950295D01*
X78692268Y-55950295D02*
X78692268Y-56188390D01*
X78692268Y-56188390D02*
X78739887Y-56283628D01*
X78739887Y-56283628D02*
X78787506Y-56331247D01*
X78787506Y-56331247D02*
X78882744Y-56378866D01*
X78882744Y-56378866D02*
X79073220Y-56378866D01*
X79073220Y-56378866D02*
X79168458Y-56331247D01*
X79168458Y-56331247D02*
X79216077Y-56283628D01*
X79216077Y-56283628D02*
X79263696Y-56188390D01*
X80406553Y-55712200D02*
X79549411Y-56997914D01*
X80692268Y-55855057D02*
X80739887Y-55807438D01*
X80739887Y-55807438D02*
X80835125Y-55759819D01*
X80835125Y-55759819D02*
X81073220Y-55759819D01*
X81073220Y-55759819D02*
X81168458Y-55807438D01*
X81168458Y-55807438D02*
X81216077Y-55855057D01*
X81216077Y-55855057D02*
X81263696Y-55950295D01*
X81263696Y-55950295D02*
X81263696Y-56045533D01*
X81263696Y-56045533D02*
X81216077Y-56188390D01*
X81216077Y-56188390D02*
X80644649Y-56759819D01*
X80644649Y-56759819D02*
X81263696Y-56759819D01*
X81882744Y-55759819D02*
X81977982Y-55759819D01*
X81977982Y-55759819D02*
X82073220Y-55807438D01*
X82073220Y-55807438D02*
X82120839Y-55855057D01*
X82120839Y-55855057D02*
X82168458Y-55950295D01*
X82168458Y-55950295D02*
X82216077Y-56140771D01*
X82216077Y-56140771D02*
X82216077Y-56378866D01*
X82216077Y-56378866D02*
X82168458Y-56569342D01*
X82168458Y-56569342D02*
X82120839Y-56664580D01*
X82120839Y-56664580D02*
X82073220Y-56712200D01*
X82073220Y-56712200D02*
X81977982Y-56759819D01*
X81977982Y-56759819D02*
X81882744Y-56759819D01*
X81882744Y-56759819D02*
X81787506Y-56712200D01*
X81787506Y-56712200D02*
X81739887Y-56664580D01*
X81739887Y-56664580D02*
X81692268Y-56569342D01*
X81692268Y-56569342D02*
X81644649Y-56378866D01*
X81644649Y-56378866D02*
X81644649Y-56140771D01*
X81644649Y-56140771D02*
X81692268Y-55950295D01*
X81692268Y-55950295D02*
X81739887Y-55855057D01*
X81739887Y-55855057D02*
X81787506Y-55807438D01*
X81787506Y-55807438D02*
X81882744Y-55759819D01*
X82597030Y-55855057D02*
X82644649Y-55807438D01*
X82644649Y-55807438D02*
X82739887Y-55759819D01*
X82739887Y-55759819D02*
X82977982Y-55759819D01*
X82977982Y-55759819D02*
X83073220Y-55807438D01*
X83073220Y-55807438D02*
X83120839Y-55855057D01*
X83120839Y-55855057D02*
X83168458Y-55950295D01*
X83168458Y-55950295D02*
X83168458Y-56045533D01*
X83168458Y-56045533D02*
X83120839Y-56188390D01*
X83120839Y-56188390D02*
X82549411Y-56759819D01*
X82549411Y-56759819D02*
X83168458Y-56759819D01*
X84073220Y-55759819D02*
X83597030Y-55759819D01*
X83597030Y-55759819D02*
X83549411Y-56236009D01*
X83549411Y-56236009D02*
X83597030Y-56188390D01*
X83597030Y-56188390D02*
X83692268Y-56140771D01*
X83692268Y-56140771D02*
X83930363Y-56140771D01*
X83930363Y-56140771D02*
X84025601Y-56188390D01*
X84025601Y-56188390D02*
X84073220Y-56236009D01*
X84073220Y-56236009D02*
X84120839Y-56331247D01*
X84120839Y-56331247D02*
X84120839Y-56569342D01*
X84120839Y-56569342D02*
X84073220Y-56664580D01*
X84073220Y-56664580D02*
X84025601Y-56712200D01*
X84025601Y-56712200D02*
X83930363Y-56759819D01*
X83930363Y-56759819D02*
X83692268Y-56759819D01*
X83692268Y-56759819D02*
X83597030Y-56712200D01*
X83597030Y-56712200D02*
X83549411Y-56664580D01*
X85168459Y-55759819D02*
X85501792Y-56759819D01*
X85501792Y-56759819D02*
X85835125Y-55759819D01*
X86692268Y-56759819D02*
X86120840Y-56759819D01*
X86406554Y-56759819D02*
X86406554Y-55759819D01*
X86406554Y-55759819D02*
X86311316Y-55902676D01*
X86311316Y-55902676D02*
X86216078Y-55997914D01*
X86216078Y-55997914D02*
X86120840Y-56045533D01*
X87120840Y-56664580D02*
X87168459Y-56712200D01*
X87168459Y-56712200D02*
X87120840Y-56759819D01*
X87120840Y-56759819D02*
X87073221Y-56712200D01*
X87073221Y-56712200D02*
X87120840Y-56664580D01*
X87120840Y-56664580D02*
X87120840Y-56759819D01*
X87787506Y-55759819D02*
X87882744Y-55759819D01*
X87882744Y-55759819D02*
X87977982Y-55807438D01*
X87977982Y-55807438D02*
X88025601Y-55855057D01*
X88025601Y-55855057D02*
X88073220Y-55950295D01*
X88073220Y-55950295D02*
X88120839Y-56140771D01*
X88120839Y-56140771D02*
X88120839Y-56378866D01*
X88120839Y-56378866D02*
X88073220Y-56569342D01*
X88073220Y-56569342D02*
X88025601Y-56664580D01*
X88025601Y-56664580D02*
X87977982Y-56712200D01*
X87977982Y-56712200D02*
X87882744Y-56759819D01*
X87882744Y-56759819D02*
X87787506Y-56759819D01*
X87787506Y-56759819D02*
X87692268Y-56712200D01*
X87692268Y-56712200D02*
X87644649Y-56664580D01*
X87644649Y-56664580D02*
X87597030Y-56569342D01*
X87597030Y-56569342D02*
X87549411Y-56378866D01*
X87549411Y-56378866D02*
X87549411Y-56140771D01*
X87549411Y-56140771D02*
X87597030Y-55950295D01*
X87597030Y-55950295D02*
X87644649Y-55855057D01*
X87644649Y-55855057D02*
X87692268Y-55807438D01*
X87692268Y-55807438D02*
X87787506Y-55759819D01*
X51447255Y-104949819D02*
X51637731Y-104949819D01*
X51637731Y-104949819D02*
X51732969Y-104997438D01*
X51732969Y-104997438D02*
X51828207Y-105092676D01*
X51828207Y-105092676D02*
X51875826Y-105283152D01*
X51875826Y-105283152D02*
X51875826Y-105616485D01*
X51875826Y-105616485D02*
X51828207Y-105806961D01*
X51828207Y-105806961D02*
X51732969Y-105902200D01*
X51732969Y-105902200D02*
X51637731Y-105949819D01*
X51637731Y-105949819D02*
X51447255Y-105949819D01*
X51447255Y-105949819D02*
X51352017Y-105902200D01*
X51352017Y-105902200D02*
X51256779Y-105806961D01*
X51256779Y-105806961D02*
X51209160Y-105616485D01*
X51209160Y-105616485D02*
X51209160Y-105283152D01*
X51209160Y-105283152D02*
X51256779Y-105092676D01*
X51256779Y-105092676D02*
X51352017Y-104997438D01*
X51352017Y-104997438D02*
X51447255Y-104949819D01*
X52304398Y-105949819D02*
X52304398Y-104949819D01*
X52304398Y-104949819D02*
X52875826Y-105949819D01*
X52875826Y-105949819D02*
X52875826Y-104949819D01*
X65918207Y-102639819D02*
X65584874Y-102163628D01*
X65346779Y-102639819D02*
X65346779Y-101639819D01*
X65346779Y-101639819D02*
X65727731Y-101639819D01*
X65727731Y-101639819D02*
X65822969Y-101687438D01*
X65822969Y-101687438D02*
X65870588Y-101735057D01*
X65870588Y-101735057D02*
X65918207Y-101830295D01*
X65918207Y-101830295D02*
X65918207Y-101973152D01*
X65918207Y-101973152D02*
X65870588Y-102068390D01*
X65870588Y-102068390D02*
X65822969Y-102116009D01*
X65822969Y-102116009D02*
X65727731Y-102163628D01*
X65727731Y-102163628D02*
X65346779Y-102163628D01*
X66727731Y-102592200D02*
X66632493Y-102639819D01*
X66632493Y-102639819D02*
X66442017Y-102639819D01*
X66442017Y-102639819D02*
X66346779Y-102592200D01*
X66346779Y-102592200D02*
X66299160Y-102496961D01*
X66299160Y-102496961D02*
X66299160Y-102116009D01*
X66299160Y-102116009D02*
X66346779Y-102020771D01*
X66346779Y-102020771D02*
X66442017Y-101973152D01*
X66442017Y-101973152D02*
X66632493Y-101973152D01*
X66632493Y-101973152D02*
X66727731Y-102020771D01*
X66727731Y-102020771D02*
X66775350Y-102116009D01*
X66775350Y-102116009D02*
X66775350Y-102211247D01*
X66775350Y-102211247D02*
X66299160Y-102306485D01*
X67156303Y-102592200D02*
X67251541Y-102639819D01*
X67251541Y-102639819D02*
X67442017Y-102639819D01*
X67442017Y-102639819D02*
X67537255Y-102592200D01*
X67537255Y-102592200D02*
X67584874Y-102496961D01*
X67584874Y-102496961D02*
X67584874Y-102449342D01*
X67584874Y-102449342D02*
X67537255Y-102354104D01*
X67537255Y-102354104D02*
X67442017Y-102306485D01*
X67442017Y-102306485D02*
X67299160Y-102306485D01*
X67299160Y-102306485D02*
X67203922Y-102258866D01*
X67203922Y-102258866D02*
X67156303Y-102163628D01*
X67156303Y-102163628D02*
X67156303Y-102116009D01*
X67156303Y-102116009D02*
X67203922Y-102020771D01*
X67203922Y-102020771D02*
X67299160Y-101973152D01*
X67299160Y-101973152D02*
X67442017Y-101973152D01*
X67442017Y-101973152D02*
X67537255Y-102020771D01*
X68394398Y-102592200D02*
X68299160Y-102639819D01*
X68299160Y-102639819D02*
X68108684Y-102639819D01*
X68108684Y-102639819D02*
X68013446Y-102592200D01*
X68013446Y-102592200D02*
X67965827Y-102496961D01*
X67965827Y-102496961D02*
X67965827Y-102116009D01*
X67965827Y-102116009D02*
X68013446Y-102020771D01*
X68013446Y-102020771D02*
X68108684Y-101973152D01*
X68108684Y-101973152D02*
X68299160Y-101973152D01*
X68299160Y-101973152D02*
X68394398Y-102020771D01*
X68394398Y-102020771D02*
X68442017Y-102116009D01*
X68442017Y-102116009D02*
X68442017Y-102211247D01*
X68442017Y-102211247D02*
X67965827Y-102306485D01*
X68727732Y-101973152D02*
X69108684Y-101973152D01*
X68870589Y-101639819D02*
X68870589Y-102496961D01*
X68870589Y-102496961D02*
X68918208Y-102592200D01*
X68918208Y-102592200D02*
X69013446Y-102639819D01*
X69013446Y-102639819D02*
X69108684Y-102639819D01*
X84366779Y-102559819D02*
X84366779Y-101559819D01*
X84366779Y-101559819D02*
X84604874Y-101559819D01*
X84604874Y-101559819D02*
X84747731Y-101607438D01*
X84747731Y-101607438D02*
X84842969Y-101702676D01*
X84842969Y-101702676D02*
X84890588Y-101797914D01*
X84890588Y-101797914D02*
X84938207Y-101988390D01*
X84938207Y-101988390D02*
X84938207Y-102131247D01*
X84938207Y-102131247D02*
X84890588Y-102321723D01*
X84890588Y-102321723D02*
X84842969Y-102416961D01*
X84842969Y-102416961D02*
X84747731Y-102512200D01*
X84747731Y-102512200D02*
X84604874Y-102559819D01*
X84604874Y-102559819D02*
X84366779Y-102559819D01*
X85509636Y-102559819D02*
X85414398Y-102512200D01*
X85414398Y-102512200D02*
X85366779Y-102464580D01*
X85366779Y-102464580D02*
X85319160Y-102369342D01*
X85319160Y-102369342D02*
X85319160Y-102083628D01*
X85319160Y-102083628D02*
X85366779Y-101988390D01*
X85366779Y-101988390D02*
X85414398Y-101940771D01*
X85414398Y-101940771D02*
X85509636Y-101893152D01*
X85509636Y-101893152D02*
X85652493Y-101893152D01*
X85652493Y-101893152D02*
X85747731Y-101940771D01*
X85747731Y-101940771D02*
X85795350Y-101988390D01*
X85795350Y-101988390D02*
X85842969Y-102083628D01*
X85842969Y-102083628D02*
X85842969Y-102369342D01*
X85842969Y-102369342D02*
X85795350Y-102464580D01*
X85795350Y-102464580D02*
X85747731Y-102512200D01*
X85747731Y-102512200D02*
X85652493Y-102559819D01*
X85652493Y-102559819D02*
X85509636Y-102559819D01*
X86176303Y-101893152D02*
X86366779Y-102559819D01*
X86366779Y-102559819D02*
X86557255Y-102083628D01*
X86557255Y-102083628D02*
X86747731Y-102559819D01*
X86747731Y-102559819D02*
X86938207Y-101893152D01*
X87319160Y-101893152D02*
X87319160Y-102559819D01*
X87319160Y-101988390D02*
X87366779Y-101940771D01*
X87366779Y-101940771D02*
X87462017Y-101893152D01*
X87462017Y-101893152D02*
X87604874Y-101893152D01*
X87604874Y-101893152D02*
X87700112Y-101940771D01*
X87700112Y-101940771D02*
X87747731Y-102036009D01*
X87747731Y-102036009D02*
X87747731Y-102559819D01*
X109924819Y-96976666D02*
X109448628Y-97309999D01*
X109924819Y-97548094D02*
X108924819Y-97548094D01*
X108924819Y-97548094D02*
X108924819Y-97167142D01*
X108924819Y-97167142D02*
X108972438Y-97071904D01*
X108972438Y-97071904D02*
X109020057Y-97024285D01*
X109020057Y-97024285D02*
X109115295Y-96976666D01*
X109115295Y-96976666D02*
X109258152Y-96976666D01*
X109258152Y-96976666D02*
X109353390Y-97024285D01*
X109353390Y-97024285D02*
X109401009Y-97071904D01*
X109401009Y-97071904D02*
X109448628Y-97167142D01*
X109448628Y-97167142D02*
X109448628Y-97548094D01*
X109020057Y-96595713D02*
X108972438Y-96548094D01*
X108972438Y-96548094D02*
X108924819Y-96452856D01*
X108924819Y-96452856D02*
X108924819Y-96214761D01*
X108924819Y-96214761D02*
X108972438Y-96119523D01*
X108972438Y-96119523D02*
X109020057Y-96071904D01*
X109020057Y-96071904D02*
X109115295Y-96024285D01*
X109115295Y-96024285D02*
X109210533Y-96024285D01*
X109210533Y-96024285D02*
X109353390Y-96071904D01*
X109353390Y-96071904D02*
X109924819Y-96643332D01*
X109924819Y-96643332D02*
X109924819Y-96024285D01*
X91184819Y-96956666D02*
X90708628Y-97289999D01*
X91184819Y-97528094D02*
X90184819Y-97528094D01*
X90184819Y-97528094D02*
X90184819Y-97147142D01*
X90184819Y-97147142D02*
X90232438Y-97051904D01*
X90232438Y-97051904D02*
X90280057Y-97004285D01*
X90280057Y-97004285D02*
X90375295Y-96956666D01*
X90375295Y-96956666D02*
X90518152Y-96956666D01*
X90518152Y-96956666D02*
X90613390Y-97004285D01*
X90613390Y-97004285D02*
X90661009Y-97051904D01*
X90661009Y-97051904D02*
X90708628Y-97147142D01*
X90708628Y-97147142D02*
X90708628Y-97528094D01*
X91184819Y-96004285D02*
X91184819Y-96575713D01*
X91184819Y-96289999D02*
X90184819Y-96289999D01*
X90184819Y-96289999D02*
X90327676Y-96385237D01*
X90327676Y-96385237D02*
X90422914Y-96480475D01*
X90422914Y-96480475D02*
X90470533Y-96575713D01*
X71836667Y-118817200D02*
X71979524Y-118864819D01*
X71979524Y-118864819D02*
X72217619Y-118864819D01*
X72217619Y-118864819D02*
X72312857Y-118817200D01*
X72312857Y-118817200D02*
X72360476Y-118769580D01*
X72360476Y-118769580D02*
X72408095Y-118674342D01*
X72408095Y-118674342D02*
X72408095Y-118579104D01*
X72408095Y-118579104D02*
X72360476Y-118483866D01*
X72360476Y-118483866D02*
X72312857Y-118436247D01*
X72312857Y-118436247D02*
X72217619Y-118388628D01*
X72217619Y-118388628D02*
X72027143Y-118341009D01*
X72027143Y-118341009D02*
X71931905Y-118293390D01*
X71931905Y-118293390D02*
X71884286Y-118245771D01*
X71884286Y-118245771D02*
X71836667Y-118150533D01*
X71836667Y-118150533D02*
X71836667Y-118055295D01*
X71836667Y-118055295D02*
X71884286Y-117960057D01*
X71884286Y-117960057D02*
X71931905Y-117912438D01*
X71931905Y-117912438D02*
X72027143Y-117864819D01*
X72027143Y-117864819D02*
X72265238Y-117864819D01*
X72265238Y-117864819D02*
X72408095Y-117912438D01*
X72741429Y-117864819D02*
X72979524Y-118864819D01*
X72979524Y-118864819D02*
X73170000Y-118150533D01*
X73170000Y-118150533D02*
X73360476Y-118864819D01*
X73360476Y-118864819D02*
X73598572Y-117864819D01*
X73884286Y-117864819D02*
X74503333Y-117864819D01*
X74503333Y-117864819D02*
X74170000Y-118245771D01*
X74170000Y-118245771D02*
X74312857Y-118245771D01*
X74312857Y-118245771D02*
X74408095Y-118293390D01*
X74408095Y-118293390D02*
X74455714Y-118341009D01*
X74455714Y-118341009D02*
X74503333Y-118436247D01*
X74503333Y-118436247D02*
X74503333Y-118674342D01*
X74503333Y-118674342D02*
X74455714Y-118769580D01*
X74455714Y-118769580D02*
X74408095Y-118817200D01*
X74408095Y-118817200D02*
X74312857Y-118864819D01*
X74312857Y-118864819D02*
X74027143Y-118864819D01*
X74027143Y-118864819D02*
X73931905Y-118817200D01*
X73931905Y-118817200D02*
X73884286Y-118769580D01*
X107536667Y-118817200D02*
X107679524Y-118864819D01*
X107679524Y-118864819D02*
X107917619Y-118864819D01*
X107917619Y-118864819D02*
X108012857Y-118817200D01*
X108012857Y-118817200D02*
X108060476Y-118769580D01*
X108060476Y-118769580D02*
X108108095Y-118674342D01*
X108108095Y-118674342D02*
X108108095Y-118579104D01*
X108108095Y-118579104D02*
X108060476Y-118483866D01*
X108060476Y-118483866D02*
X108012857Y-118436247D01*
X108012857Y-118436247D02*
X107917619Y-118388628D01*
X107917619Y-118388628D02*
X107727143Y-118341009D01*
X107727143Y-118341009D02*
X107631905Y-118293390D01*
X107631905Y-118293390D02*
X107584286Y-118245771D01*
X107584286Y-118245771D02*
X107536667Y-118150533D01*
X107536667Y-118150533D02*
X107536667Y-118055295D01*
X107536667Y-118055295D02*
X107584286Y-117960057D01*
X107584286Y-117960057D02*
X107631905Y-117912438D01*
X107631905Y-117912438D02*
X107727143Y-117864819D01*
X107727143Y-117864819D02*
X107965238Y-117864819D01*
X107965238Y-117864819D02*
X108108095Y-117912438D01*
X108441429Y-117864819D02*
X108679524Y-118864819D01*
X108679524Y-118864819D02*
X108870000Y-118150533D01*
X108870000Y-118150533D02*
X109060476Y-118864819D01*
X109060476Y-118864819D02*
X109298572Y-117864819D01*
X110203333Y-118864819D02*
X109631905Y-118864819D01*
X109917619Y-118864819D02*
X109917619Y-117864819D01*
X109917619Y-117864819D02*
X109822381Y-118007676D01*
X109822381Y-118007676D02*
X109727143Y-118102914D01*
X109727143Y-118102914D02*
X109631905Y-118150533D01*
X96861905Y-90454819D02*
X96861905Y-91264342D01*
X96861905Y-91264342D02*
X96909524Y-91359580D01*
X96909524Y-91359580D02*
X96957143Y-91407200D01*
X96957143Y-91407200D02*
X97052381Y-91454819D01*
X97052381Y-91454819D02*
X97242857Y-91454819D01*
X97242857Y-91454819D02*
X97338095Y-91407200D01*
X97338095Y-91407200D02*
X97385714Y-91359580D01*
X97385714Y-91359580D02*
X97433333Y-91264342D01*
X97433333Y-91264342D02*
X97433333Y-90454819D01*
X98433333Y-91454819D02*
X97861905Y-91454819D01*
X98147619Y-91454819D02*
X98147619Y-90454819D01*
X98147619Y-90454819D02*
X98052381Y-90597676D01*
X98052381Y-90597676D02*
X97957143Y-90692914D01*
X97957143Y-90692914D02*
X97861905Y-90740533D01*
X99052381Y-90454819D02*
X99147619Y-90454819D01*
X99147619Y-90454819D02*
X99242857Y-90502438D01*
X99242857Y-90502438D02*
X99290476Y-90550057D01*
X99290476Y-90550057D02*
X99338095Y-90645295D01*
X99338095Y-90645295D02*
X99385714Y-90835771D01*
X99385714Y-90835771D02*
X99385714Y-91073866D01*
X99385714Y-91073866D02*
X99338095Y-91264342D01*
X99338095Y-91264342D02*
X99290476Y-91359580D01*
X99290476Y-91359580D02*
X99242857Y-91407200D01*
X99242857Y-91407200D02*
X99147619Y-91454819D01*
X99147619Y-91454819D02*
X99052381Y-91454819D01*
X99052381Y-91454819D02*
X98957143Y-91407200D01*
X98957143Y-91407200D02*
X98909524Y-91359580D01*
X98909524Y-91359580D02*
X98861905Y-91264342D01*
X98861905Y-91264342D02*
X98814286Y-91073866D01*
X98814286Y-91073866D02*
X98814286Y-90835771D01*
X98814286Y-90835771D02*
X98861905Y-90645295D01*
X98861905Y-90645295D02*
X98909524Y-90550057D01*
X98909524Y-90550057D02*
X98957143Y-90502438D01*
X98957143Y-90502438D02*
X99052381Y-90454819D01*
X111838095Y-90354819D02*
X111838095Y-91164342D01*
X111838095Y-91164342D02*
X111885714Y-91259580D01*
X111885714Y-91259580D02*
X111933333Y-91307200D01*
X111933333Y-91307200D02*
X112028571Y-91354819D01*
X112028571Y-91354819D02*
X112219047Y-91354819D01*
X112219047Y-91354819D02*
X112314285Y-91307200D01*
X112314285Y-91307200D02*
X112361904Y-91259580D01*
X112361904Y-91259580D02*
X112409523Y-91164342D01*
X112409523Y-91164342D02*
X112409523Y-90354819D01*
X113409523Y-91354819D02*
X112838095Y-91354819D01*
X113123809Y-91354819D02*
X113123809Y-90354819D01*
X113123809Y-90354819D02*
X113028571Y-90497676D01*
X113028571Y-90497676D02*
X112933333Y-90592914D01*
X112933333Y-90592914D02*
X112838095Y-90640533D01*
X90836667Y-118817200D02*
X90979524Y-118864819D01*
X90979524Y-118864819D02*
X91217619Y-118864819D01*
X91217619Y-118864819D02*
X91312857Y-118817200D01*
X91312857Y-118817200D02*
X91360476Y-118769580D01*
X91360476Y-118769580D02*
X91408095Y-118674342D01*
X91408095Y-118674342D02*
X91408095Y-118579104D01*
X91408095Y-118579104D02*
X91360476Y-118483866D01*
X91360476Y-118483866D02*
X91312857Y-118436247D01*
X91312857Y-118436247D02*
X91217619Y-118388628D01*
X91217619Y-118388628D02*
X91027143Y-118341009D01*
X91027143Y-118341009D02*
X90931905Y-118293390D01*
X90931905Y-118293390D02*
X90884286Y-118245771D01*
X90884286Y-118245771D02*
X90836667Y-118150533D01*
X90836667Y-118150533D02*
X90836667Y-118055295D01*
X90836667Y-118055295D02*
X90884286Y-117960057D01*
X90884286Y-117960057D02*
X90931905Y-117912438D01*
X90931905Y-117912438D02*
X91027143Y-117864819D01*
X91027143Y-117864819D02*
X91265238Y-117864819D01*
X91265238Y-117864819D02*
X91408095Y-117912438D01*
X91741429Y-117864819D02*
X91979524Y-118864819D01*
X91979524Y-118864819D02*
X92170000Y-118150533D01*
X92170000Y-118150533D02*
X92360476Y-118864819D01*
X92360476Y-118864819D02*
X92598572Y-117864819D01*
X92931905Y-117960057D02*
X92979524Y-117912438D01*
X92979524Y-117912438D02*
X93074762Y-117864819D01*
X93074762Y-117864819D02*
X93312857Y-117864819D01*
X93312857Y-117864819D02*
X93408095Y-117912438D01*
X93408095Y-117912438D02*
X93455714Y-117960057D01*
X93455714Y-117960057D02*
X93503333Y-118055295D01*
X93503333Y-118055295D02*
X93503333Y-118150533D01*
X93503333Y-118150533D02*
X93455714Y-118293390D01*
X93455714Y-118293390D02*
X92884286Y-118864819D01*
X92884286Y-118864819D02*
X93503333Y-118864819D01*
D11*
%TO.C,R2*%
X105830000Y-94016000D02*
X105830000Y-95413000D01*
X105830000Y-95413000D02*
X105957000Y-95540000D01*
X105830000Y-98207000D02*
X105957000Y-98080000D01*
X105830000Y-99604000D02*
X105830000Y-98207000D01*
X105957000Y-95540000D02*
X105957000Y-96810000D01*
X105957000Y-98080000D02*
X105957000Y-96810000D01*
X106211000Y-93635000D02*
X105830000Y-94016000D01*
X106211000Y-99985000D02*
X105830000Y-99604000D01*
X107989000Y-93635000D02*
X108370000Y-94016000D01*
X107989000Y-99985000D02*
X108370000Y-99604000D01*
X108243000Y-95540000D02*
X108243000Y-96810000D01*
X108243000Y-98080000D02*
X108243000Y-96810000D01*
X108370000Y-94016000D02*
X108370000Y-95413000D01*
X108370000Y-95413000D02*
X108243000Y-95540000D01*
X108370000Y-98207000D02*
X108243000Y-98080000D01*
X108370000Y-99604000D02*
X108370000Y-98207000D01*
%TO.C,R1*%
X91830000Y-93996000D02*
X91830000Y-95393000D01*
X91830000Y-95393000D02*
X91957000Y-95520000D01*
X91830000Y-98187000D02*
X91957000Y-98060000D01*
X91830000Y-99584000D02*
X91830000Y-98187000D01*
X91957000Y-95520000D02*
X91957000Y-96790000D01*
X91957000Y-98060000D02*
X91957000Y-96790000D01*
X92211000Y-93615000D02*
X91830000Y-93996000D01*
X92211000Y-99965000D02*
X91830000Y-99584000D01*
X93989000Y-93615000D02*
X94370000Y-93996000D01*
X93989000Y-99965000D02*
X94370000Y-99584000D01*
X94243000Y-95520000D02*
X94243000Y-96790000D01*
X94243000Y-98060000D02*
X94243000Y-96790000D01*
X94370000Y-93996000D02*
X94370000Y-95393000D01*
X94370000Y-95393000D02*
X94243000Y-95520000D01*
X94370000Y-98187000D02*
X94243000Y-98060000D01*
X94370000Y-99584000D02*
X94370000Y-98187000D01*
D12*
%TO.C,SW4*%
X51185000Y-106825000D02*
X51185000Y-111175000D01*
X51185000Y-111175000D02*
X62815000Y-111175000D01*
X62815000Y-106825000D02*
X51185000Y-106825000D01*
X62815000Y-111175000D02*
X62815000Y-106825000D01*
D11*
%TO.C,SW3*%
X66640000Y-104390000D02*
X78860000Y-104390000D01*
X66640000Y-106900000D02*
X66640000Y-104390000D01*
X66640000Y-111800000D02*
X66640000Y-109200000D01*
X66640000Y-116610000D02*
X66640000Y-114100000D01*
X78860000Y-106900000D02*
X78860000Y-104390000D01*
X78860000Y-111800000D02*
X78860000Y-109200000D01*
X78860000Y-116610000D02*
X66640000Y-116610000D01*
X78860000Y-116610000D02*
X78860000Y-114100000D01*
X76300000Y-110500000D02*
G75*
G02*
X69200000Y-110500000I-3550000J0D01*
G01*
X69200000Y-110500000D02*
G75*
G02*
X76300000Y-110500000I3550000J0D01*
G01*
%TO.C,SW1*%
X102340000Y-104390000D02*
X114560000Y-104390000D01*
X102340000Y-106900000D02*
X102340000Y-104390000D01*
X102340000Y-111800000D02*
X102340000Y-109200000D01*
X102340000Y-116610000D02*
X102340000Y-114100000D01*
X114560000Y-106900000D02*
X114560000Y-104390000D01*
X114560000Y-111800000D02*
X114560000Y-109200000D01*
X114560000Y-116610000D02*
X102340000Y-116610000D01*
X114560000Y-116610000D02*
X114560000Y-114100000D01*
X112000000Y-110500000D02*
G75*
G02*
X104900000Y-110500000I-3550000J0D01*
G01*
X104900000Y-110500000D02*
G75*
G02*
X112000000Y-110500000I3550000J0D01*
G01*
%TO.C,U10*%
X86720000Y-70770000D02*
X86720000Y-89990000D01*
X86720000Y-70770000D02*
X99440000Y-70770000D01*
X86720000Y-89990000D02*
X99440000Y-89990000D01*
X87200000Y-90340000D02*
X88810000Y-90340000D01*
X91159400Y-74816800D02*
X91159400Y-80176200D01*
X91159400Y-80354000D02*
X91159400Y-85256200D01*
X91337200Y-74791400D02*
X95020200Y-74791400D01*
X91337200Y-80252400D02*
X95020200Y-80252400D01*
X91337200Y-85256200D02*
X95020200Y-85256200D01*
X95198000Y-74816800D02*
X95198000Y-80176200D01*
X95198000Y-80354000D02*
X95198000Y-85256200D01*
X99440000Y-70770000D02*
X99440000Y-89990000D01*
X96542467Y-85442467D02*
G75*
G02*
X95597533Y-85442467I-472467J0D01*
G01*
X95597533Y-85442467D02*
G75*
G02*
X96542467Y-85442467I472467J0D01*
G01*
%TO.C,U1*%
X100720000Y-70770000D02*
X100720000Y-89990000D01*
X100720000Y-70770000D02*
X113440000Y-70770000D01*
X100720000Y-89990000D02*
X113440000Y-89990000D01*
X101200000Y-90340000D02*
X102810000Y-90340000D01*
X105159400Y-74816800D02*
X105159400Y-80176200D01*
X105159400Y-80354000D02*
X105159400Y-85256200D01*
X105337200Y-74791400D02*
X109020200Y-74791400D01*
X105337200Y-80252400D02*
X109020200Y-80252400D01*
X105337200Y-85256200D02*
X109020200Y-85256200D01*
X109198000Y-74816800D02*
X109198000Y-80176200D01*
X109198000Y-80354000D02*
X109198000Y-85256200D01*
X113440000Y-70770000D02*
X113440000Y-89990000D01*
X110542467Y-85442467D02*
G75*
G02*
X109597533Y-85442467I-472467J0D01*
G01*
X109597533Y-85442467D02*
G75*
G02*
X110542467Y-85442467I472467J0D01*
G01*
%TO.C,SW2*%
X85640000Y-104390000D02*
X97860000Y-104390000D01*
X85640000Y-106900000D02*
X85640000Y-104390000D01*
X85640000Y-111800000D02*
X85640000Y-109200000D01*
X85640000Y-116610000D02*
X85640000Y-114100000D01*
X97860000Y-106900000D02*
X97860000Y-104390000D01*
X97860000Y-111800000D02*
X97860000Y-109200000D01*
X97860000Y-116610000D02*
X85640000Y-116610000D01*
X97860000Y-116610000D02*
X97860000Y-114100000D01*
X95300000Y-110500000D02*
G75*
G02*
X88200000Y-110500000I-3550000J0D01*
G01*
X88200000Y-110500000D02*
G75*
G02*
X95300000Y-110500000I3550000J0D01*
G01*
%TD*%
M02*
