M48
; DRILL file {KiCad 9.0.4} date 2025-11-18T21:18:15+0100
; FORMAT={-:-/ absolute / metric / decimal}
; #@! TF.CreationDate,2025-11-18T21:18:15+01:00
; #@! TF.GenerationSoftware,Kicad,Pcbnew,9.0.4
; #@! TF.FileFunction,Plated,1,2,PTH
FMAT,2
METRIC
; #@! TA.AperFunction,Plated,PTH,ComponentDrill
T1C0.750
; #@! TA.AperFunction,Plated,PTH,ComponentDrill
T2C0.800
; #@! TA.AperFunction,Plated,PTH,ComponentDrill
T3C1.000
; #@! TA.AperFunction,Plated,PTH,ComponentDrill
T4C1.016
; #@! TA.AperFunction,Plated,PTH,ComponentDrill
T5C1.300
; #@! TA.AperFunction,Plated,PTH,ComponentDrill
T6C3.200
%
G90
G05
T2
X88.0Y-72.76
X88.0Y-88.0
X90.54Y-72.76
X90.54Y-88.0
X93.08Y-72.76
X93.08Y-88.0
X93.1Y-92.98
X93.1Y-100.6
X95.62Y-72.76
X95.62Y-88.0
X98.16Y-72.76
X98.16Y-88.0
X102.0Y-72.76
X102.0Y-88.0
X104.54Y-72.76
X104.54Y-88.0
X107.08Y-72.76
X107.08Y-88.0
X107.1Y-93.0
X107.1Y-100.62
X109.62Y-72.76
X109.62Y-88.0
X112.16Y-72.76
X112.16Y-88.0
T3
X87.0Y-53.0
X87.0Y-68.24
X89.54Y-53.0
X89.54Y-68.24
X92.08Y-53.0
X92.08Y-68.24
X94.62Y-53.0
X94.62Y-68.24
X97.16Y-53.0
X97.16Y-68.24
X99.7Y-53.0
X99.7Y-68.24
X102.24Y-53.0
X102.24Y-68.24
X104.78Y-53.0
X104.78Y-68.24
X107.32Y-53.0
X107.32Y-68.24
X109.86Y-53.0
X109.86Y-68.24
X112.4Y-53.0
X112.4Y-68.24
X114.94Y-53.0
X114.94Y-68.24
X117.48Y-53.0
X117.48Y-68.24
X120.02Y-53.0
X120.02Y-68.24
X122.56Y-53.0
X122.56Y-68.24
T4
X54.46Y-109.0
X57.0Y-109.0
X59.54Y-109.0
T5
X66.5Y-108.0
X66.5Y-113.0
X79.0Y-108.0
X79.0Y-113.0
X85.5Y-108.0
X85.5Y-113.0
X98.0Y-108.0
X98.0Y-113.0
X102.2Y-108.0
X102.2Y-113.0
X114.7Y-108.0
X114.7Y-113.0
T6
X55.0Y-115.0
X125.0Y-81.0
X125.0Y-115.0
T1
G00X59.535Y-53.38
M15
G01X61.085Y-53.38
M16
G05
G00X72.485Y-53.38
M15
G01X74.035Y-53.38
M16
G05
M30
